<?xml version="1.0" encoding="UTF-8" standalone="no"?>
<!-- Created with Inkscape (http://www.inkscape.org/) -->

<svg
   xmlns:dc="http://purl.org/dc/elements/1.1/"
   xmlns:cc="http://creativecommons.org/ns#"
   xmlns:rdf="http://www.w3.org/1999/02/22-rdf-syntax-ns#"
   xmlns:svg="http://www.w3.org/2000/svg"
   xmlns="http://www.w3.org/2000/svg"
   xmlns:sodipodi="http://sodipodi.sourceforge.net/DTD/sodipodi-0.dtd"
   xmlns:inkscape="http://www.inkscape.org/namespaces/inkscape"
   width="800px"
   height="600px"
   viewBox="0 0 800 600"
   version="1.1"
   id="SVGRoot"
   inkscape:version="0.92.3 (2405546, 2018-03-11)"
   sodipodi:docname="logo.svg">
  <sodipodi:namedview
     id="base"
     pagecolor="#ffffff"
     bordercolor="#666666"
     borderopacity="1.0"
     inkscape:pageopacity="0.0"
     inkscape:pageshadow="2"
     inkscape:zoom="0.64"
     inkscape:cx="-19.077647"
     inkscape:cy="163.66108"
     inkscape:document-units="px"
     inkscape:current-layer="layer1"
     showgrid="false"
     inkscape:window-width="1920"
     inkscape:window-height="1015"
     inkscape:window-x="0"
     inkscape:window-y="0"
     inkscape:window-maximized="1"
     inkscape:measure-start="682.031,300.781"
     inkscape:measure-end="617.188,391.406" />
  <defs
     id="defs895">














</defs>
  <metadata
     id="metadata898">
    <rdf:RDF>
      <cc:Work
         rdf:about="">
        <dc:format>image/svg+xml</dc:format>
        <dc:type
           rdf:resource="http://purl.org/dc/dcmitype/StillImage" />
        <dc:title></dc:title>
      </cc:Work>
    </rdf:RDF>
  </metadata>
  <g
     id="layer1"
     inkscape:groupmode="layer"
     inkscape:label="Layer 1">
    <rect
       style="opacity:1;fill:#ffffff;fill-opacity:1;stroke:none;stroke-width:0.69703251;stroke-miterlimit:4;stroke-dasharray:none;stroke-opacity:1"
       id="rect1776"
       width="812.60413"
       height="605.46021"
       x="0"
       y="0.064090177" />
    <circle
       style="opacity:1;fill:#000000;fill-opacity:1;stroke:#000000;stroke-width:0.69300002;stroke-miterlimit:4;stroke-dasharray:none;stroke-opacity:1"
       id="path1454"
       cx="401.61456"
       cy="302.79419"
       r="180.46875" />
    <g
       id="g1774"
       transform="translate(-10.885438,15.062277)">
      <g
         id="g1751">
        <g
           id="g1729">
          <g
             id="g1676">
            <g
               id="g1663">
              <g
                 id="g1651">
                <g
                   id="g1640">
                  <g
                     transform="matrix(0.25767598,0,0,0.25767598,346.53495,224.65995)"
                     id="g1569"
                     style="fill:#ffffff">
                    <g
                       id="g1561">
                      <g
                         id="g1554">
                        <g
                           transform="translate(0,-60.028726)"
                           style="fill:#ffffff"
                           id="g1489">
	<g
   style="fill:#ffffff"
   id="g1487">
		<path
   style="fill:#ffffff"
   inkscape:connector-curvature="0"
   d="m 437.333,192 h -32 V 149.333 C 405.333,66.99 338.344,0 256,0 173.656,0 106.667,66.99 106.667,149.333 V 192 h -32 C 68.771,192 64,196.771 64,202.667 V 469.334 C 64,492.865 83.135,512 106.667,512 H 405.334 C 428.865,512 448,492.865 448,469.333 V 202.667 C 448,196.771 443.229,192 437.333,192 Z M 287.938,414.823 c 0.333,3.01 -0.635,6.031 -2.656,8.292 -2.021,2.26 -4.917,3.552 -7.948,3.552 h -42.667 c -3.031,0 -5.927,-1.292 -7.948,-3.552 -2.021,-2.26 -2.99,-5.281 -2.656,-8.292 l 6.729,-60.51 C 219.865,346.365 213.334,333.792 213.334,320 c 0,-23.531 19.135,-42.667 42.667,-42.667 23.532,0 42.667,19.135 42.667,42.667 0,13.792 -6.531,26.365 -17.458,34.313 z M 341.333,192 H 170.667 V 149.333 C 170.667,102.281 208.948,64 256,64 c 47.052,0 85.333,38.281 85.333,85.333 V 192 Z"
   id="path1485" />

	</g>

</g>
                        <rect
                           y="209.0054"
                           x="186.26605"
                           height="171.30283"
                           width="131.88802"
                           id="rect1548"
                           style="opacity:1;fill:#ffffff;fill-opacity:1;stroke:none;stroke-width:2.68942428;stroke-miterlimit:4;stroke-dasharray:none;stroke-opacity:1" />
                      </g>
                    </g>
                  </g>
                  <path
                     transform="rotate(2.0337663,590.1961,755.21343)"
                     sodipodi:type="star"
                     style="opacity:1;fill:#ffffff;fill-opacity:1;stroke:none;stroke-width:0.69300002;stroke-miterlimit:4;stroke-dasharray:none;stroke-opacity:1"
                     id="path1590"
                     sodipodi:sides="3"
                     sodipodi:cx="380.43903"
                     sodipodi:cy="338.6441"
                     sodipodi:r1="43.960503"
                     sodipodi:r2="21.447231"
                     sodipodi:arg1="0.097900308"
                     sodipodi:arg2="1.0803648"
                     inkscape:flatsided="false"
                     inkscape:rounded="0"
                     inkscape:randomized="0"
                     d="m 424.18903,342.94098 -33.64822,14.62236 -35.69799,16.82094 4.16077,-36.45139 3.28164,-39.32584 29.48744,21.82903 z"
                     inkscape:transform-center-x="-8.3607443"
                     inkscape:transform-center-y="-2.9233975" />
                </g>
              </g>
            </g>
          </g>
          <g
             transform="matrix(0.69064078,0,0,0.69064078,-55.468163,0.26064333)"
             id="g1708">
            <g
               id="g1700">
              <g
                 id="g1693">
                <g
                   id="g1687">
                  <path
                     d="m 662.97964,434.27185 a 8.8388348,8.8388348 0 0 1 -8.68538,8.8375 8.8388348,8.8388348 0 0 1 -8.98696,-8.53065 8.8388348,8.8388348 0 0 1 8.37335,-9.1337 8.8388348,8.8388348 0 0 1 9.27769,8.21352"
                     sodipodi:open="true"
                     sodipodi:end="6.2137387"
                     sodipodi:start="0"
                     sodipodi:ry="8.8388348"
                     sodipodi:rx="8.8388348"
                     sodipodi:cy="434.27185"
                     sodipodi:cx="654.14081"
                     sodipodi:type="arc"
                     id="path1678"
                     style="opacity:1;fill:#000000;fill-opacity:1;stroke:none;stroke-width:0.69300002;stroke-miterlimit:4;stroke-dasharray:none;stroke-opacity:1" />
                  <path
                     style="opacity:1;fill:#000000;fill-opacity:1;stroke:none;stroke-width:0.69300002;stroke-miterlimit:4;stroke-dasharray:none;stroke-opacity:1"
                     id="path1680"
                     sodipodi:type="arc"
                     sodipodi:cx="677.82819"
                     sodipodi:cy="434.27185"
                     sodipodi:rx="8.8388348"
                     sodipodi:ry="8.8388348"
                     sodipodi:start="0"
                     sodipodi:end="6.2137387"
                     sodipodi:open="true"
                     d="m 686.66702,434.27185 a 8.8388348,8.8388348 0 0 1 -8.68538,8.8375 8.8388348,8.8388348 0 0 1 -8.98696,-8.53065 8.8388348,8.8388348 0 0 1 8.37334,-9.1337 8.8388348,8.8388348 0 0 1 9.2777,8.21352" />
                  <path
                     d="m 709.86899,434.27185 a 8.8388348,8.8388348 0 0 1 -8.68539,8.8375 8.8388348,8.8388348 0 0 1 -8.98696,-8.53065 8.8388348,8.8388348 0 0 1 8.37335,-9.1337 8.8388348,8.8388348 0 0 1 9.27769,8.21352"
                     sodipodi:open="true"
                     sodipodi:end="6.2137387"
                     sodipodi:start="0"
                     sodipodi:ry="8.8388348"
                     sodipodi:rx="8.8388348"
                     sodipodi:cy="434.27185"
                     sodipodi:cx="701.03015"
                     sodipodi:type="arc"
                     id="path1682"
                     style="opacity:1;fill:#000000;fill-opacity:1;stroke:none;stroke-width:0.69300002;stroke-miterlimit:4;stroke-dasharray:none;stroke-opacity:1" />
                </g>
              </g>
            </g>
          </g>
        </g>
      </g>
    </g>
  </g>
</svg>
